<?xml version="1.0" encoding="utf-8"?>
<!-- Generator: Adobe Illustrator 16.0.0, SVG Export Plug-In . SVG Version: 6.00 Build 0)  -->
<!DOCTYPE svg PUBLIC "-//W3C//DTD SVG 1.1//EN" "http://www.w3.org/Graphics/SVG/1.1/DTD/svg11.dtd">
<svg version="1.1" id="Calque_1" xmlns="http://www.w3.org/2000/svg" xmlns:xlink="http://www.w3.org/1999/xlink" x="0px" y="0px"
	 width="300px" height="206px" viewBox="0 0 300 206" enable-background="new 0 0 300 206" xml:space="preserve">
<g id="Calque_2">
	<rect fill="#FFEB3B" width="300" height="206"/>
</g>
<g id="Calque_3" display="none">
	<rect y="201" display="inline" fill="#FF0080" width="300" height="5"/>
</g>
<g id="Calque_1_2_">
	<g id="Calque_1_1_">
		<g>
			<path display="none" d="M0.259,203.193c0-67.789,0-135.579,0-203.368c99.914,0,199.828,0,299.741,0c0,67.694,0,135.386,0,203.306
				c-2.221,0-3.848,0-5.477,0c-77.232,0-154.464-0.004-231.696,0.004C41.971,203.137,21.115,203.173,0.259,203.193z M205.184,131.77
				c0,22.813,0,44.373,0,66.037c9.349,0,18.387,0,27.646,0c0-46.138,0-92.063,0-138.17c-9.313,0-18.354,0-27.863,0
				c0,1.562,0,2.912,0,4.262c0,11.25,0.313,22.513-0.146,33.744c-0.2,4.914-1.256,10.081-3.215,14.564
				c-2.869,6.569-9.084,9.049-15.676,7.541c-5.25-1.199-8.105-5.386-8.197-12.897c-0.17-14.155-0.107-28.313-0.142-42.468
				c-0.005-1.487,0-2.975,0-4.611c-9.569,0-18.678,0-27.282,0c0,19.287-0.815,38.265,0.238,57.137
				c0.979,17.568,15.77,28.262,33.377,26.063C191.986,141.964,198.813,138.568,205.184,131.77z M146.311,141.104
				c0-1.752,0-3.232,0-4.711c0-19.34,0.043-38.678-0.026-58.016c-0.021-6.016-0.35-12.031-0.538-18.046
				c-5.909-0.145-11.816-0.314-17.726-0.423c-3.115-0.058-6.232-0.011-9.869-0.011c0,3.063,0,5.58,0,8.585
				c-14.925-14.85-41.101-13.797-55.64,1.234c-15.617,16.146-16.347,42.679-1.756,59.792c14.11,16.551,41.187,18.592,57.364,3.846
				c0.124,2.672,0.237,5.117,0.359,7.75C127.721,141.104,136.651,141.104,146.311,141.104z M252.012,18.568
				c1.938-0.147,3.54-0.324,5.147-0.383c8.176-0.3,10.077,1.548,10.077,9.743c0.002,18.073,0.082,36.146-0.033,54.219
				c-0.059,9.089,3.582,16.092,10.958,21.264c1.058,0.741,2.078,1.534,3.108,2.298c-0.299,0.361-0.36,0.488-0.463,0.551
				c-0.644,0.391-1.283,0.793-1.947,1.148c-8.133,4.357-11.976,10.955-11.709,20.365c0.35,12.375,0.113,24.768,0.063,37.151
				c-0.011,2.519-0.079,5.074-0.52,7.541c-1.418,7.947-4.657,10.386-12.803,9.979c-0.586-0.03-1.185,0.121-1.937,0.205
				c0,3.392,0,6.599,0,10.355c4.396,0,8.541,0.115,12.678-0.027c5.875-0.201,10.255-3.104,13.526-7.885
				c3.156-4.617,3.689-9.895,3.729-15.223c0.098-13.395,0.389-26.805-0.101-40.184c-0.294-8.023,2.708-13.293,9.731-16.715
				c2.539-1.236,3.244-13.452,1-15.152c-0.1-0.075-0.219-0.129-0.334-0.18c-8.354-3.63-10.369-10.604-10.302-18.916
				c0.126-15.797,0.08-31.597-0.003-47.394c-0.016-3.015-0.295-6.072-0.859-9.032c-1.377-7.188-5.336-12.486-12.77-13.796
				c-5.255-0.926-10.716-0.687-16.244-0.975C252.012,11.662,252.012,14.981,252.012,18.568z M50.601,182.577
				c-11.747-0.144-15.095-3.562-15.298-15.062c-0.016-0.887-0.003-1.77-0.003-2.652c0-12.893-0.1-25.784,0.036-38.676
				c0.083-7.828-3.275-13.559-9.771-17.641c-1.439-0.906-2.896-1.783-4.84-2.977c12.003-6.172,15.068-16.151,14.704-28.425
				c-0.509-17.173-0.149-34.372-0.115-51.56c0.01-4.981,2.131-7.167,7.099-7.384c2.612-0.114,5.234-0.021,8.143-0.021
				c0-3.239,0-6.559,0-9.953c-5.349,0-10.559-0.547-15.604,0.135c-6.707,0.907-11.21,5.168-12.831,11.819
				c-0.888,3.646-1.404,7.47-1.44,11.219c-0.153,16.176-0.076,32.354-0.061,48.531c0.005,6.204-0.984,12.544-6.819,15.48
				c-5.036,2.533-5.258,5.988-4.941,10.375c0.055,0.754,0.108,1.53-0.011,2.271c-0.44,2.742,0.627,4.318,3.176,5.584
				c5.924,2.943,8.87,7.594,8.69,14.598c-0.345,13.517-0.147,27.046-0.065,40.566c0.018,3.018,0.284,6.068,0.791,9.043
				c1.245,7.316,6.919,13.846,13.533,14.676c5.061,0.636,10.266,0.127,15.627,0.127C50.601,189.206,50.601,185.991,50.601,182.577z
				 M164.238,20.182c-8.34-0.015-14.525,6.214-14.5,14.603c0.025,8.101,6.271,14.462,14.278,14.542
				c8.189,0.082,14.729-6.35,14.752-14.511C178.789,26.464,172.566,20.197,164.238,20.182z M233.354,35.715
				c0.039-7.997-5.806-13.911-13.725-13.888c-7.668,0.021-13.641,5.95-13.705,13.609c-0.064,7.793,5.985,13.882,13.809,13.891
				C227.406,49.336,233.318,43.428,233.354,35.715z"/>
			<path display="none" d="M99.247,80.871c10.447,0.007,19.164,9.132,19.017,19.909c-0.148,10.764-8.679,19.626-18.949,19.686
				c-10.467,0.062-19.147-8.896-19.196-19.809C80.069,89.753,88.662,80.865,99.247,80.871z"/>
			<g>
				<path display="none" fill="none" d="M40.552,8.022c-1.914,0.003-3.808,0.087-5.7,0.342c-0.21,0.028-0.41,0.07-0.615,0.104
					c0.205-0.035,0.406-0.076,0.616-0.104C36.744,8.109,38.639,8.026,40.552,8.022z"/>
				<path display="none" fill="none" d="M21.44,177.852c-0.507-2.976-0.772-6.025-0.791-9.043
					c-0.083-13.521-0.28-27.052,0.065-40.566c0.179-7.004-2.767-11.654-8.691-14.598c-2.549-1.27-3.618-2.845-3.177-5.586
					c0.074-0.459,0.077-0.933,0.059-1.406c0.018,0.475,0.013,0.947-0.061,1.406c-0.44,2.741,0.624,4.316,3.172,5.586
					c5.925,2.942,8.862,7.594,8.683,14.598c-0.345,13.516-0.162,27.045-0.08,40.566c0.018,3.018,0.253,6.067,0.76,9.043
					c1.245,7.315,6.858,13.846,13.472,14.676C28.237,191.695,22.685,185.167,21.44,177.852z"/>
				<path display="none" fill="none" d="M87.225,143.042c3.46,0.356,6.961,0.293,10.401-0.201
					C94.185,143.333,90.682,143.396,87.225,143.042z"/>
				<path display="none" fill="none" d="M118.098,133.359c-0.713,0.658-1.457,1.271-2.213,1.861
					c0.755-0.586,1.613-1.191,2.213-1.844c0-0.004,0-0.008,0-0.012C118.098,133.363,118.098,133.361,118.098,133.359z"/>
				<path display="none" fill="none" d="M185.938,119.747c6.592,1.508,12.814-0.972,15.684-7.539
					c1.958-4.485,3.027-9.652,3.229-14.565c0.23-5.615,0.273-11.239,0.26-16.865c0.015,5.624-0.028,11.245-0.26,16.859
					c-0.199,4.914-1.283,10.073-3.242,14.56c-2.868,6.568-9.084,9.035-15.676,7.527c-4.912-1.121-7.729-4.879-8.145-11.515
					C178.191,114.87,181.014,118.622,185.938,119.747z"/>
				<path display="none" fill="none" d="M35.305,126.188c-0.135,12.892-0.066,25.783-0.066,38.676c0,0.658-0.032,1.318-0.045,1.98
					c0.031-0.662,0.105-1.322,0.105-1.98c0-12.893-0.101-25.784,0.035-38.676c0.082-7.828-3.279-13.557-9.775-17.641
					c-0.876-0.551-1.762-1.092-2.759-1.701c0.993,0.609,1.874,1.15,2.75,1.701C32.044,112.63,35.387,118.359,35.305,126.188z"/>
				<path display="none" fill="none" d="M41.191,18.297c0.358-0.043,0.727-0.077,1.121-0.094c0.979-0.043,1.935-0.056,2.903-0.056
					c-0.969,0-1.924,0.013-2.904,0.056C41.917,18.221,41.549,18.254,41.191,18.297z"/>
				<path display="none" fill="none" d="M266.693,172.469c0.44-2.468,0.51-5.023,0.521-7.541c0.05-12.386,0.285-24.777-0.063-37.152
					c-0.266-9.41,3.576-16.006,11.707-20.365c0.569-0.305,1.121-0.645,1.672-0.98c-0.553,0.336-1.105,0.676-1.674,0.98
					c-8.133,4.357-11.98,10.955-11.715,20.365c0.35,12.375,0.104,24.768,0.053,37.152c-0.01,2.518-0.103,5.073-0.543,7.541
					c-1.327,7.449-4.297,10.059-11.373,10.02C262.357,182.525,265.366,179.918,266.693,172.469z"/>
				<path display="none" fill="none" d="M291.516,112.977c-7.025,3.422-10.031,8.69-9.738,16.715
					c0.488,13.379,0.188,26.789,0.091,40.184c-0.04,5.328-0.593,10.604-3.751,15.223c-3.271,4.783-7.695,7.684-13.569,7.885
					c5.874-0.201,10.341-3.104,13.612-7.885c3.158-4.617,3.689-9.895,3.729-15.223c0.098-13.395,0.389-26.805-0.102-40.184
					c-0.293-8.023,2.708-13.293,9.73-16.715c1.443-0.703,2.293-4.949,2.347-8.797C293.809,108.025,292.957,112.271,291.516,112.977z
					"/>
				<path display="none" fill="none" d="M183.846,142.925c-17.607,2.197-32.318-8.541-33.298-26.106
					c-1.054-18.875-0.238-38.046-0.238-57.229c0,19.184-0.856,38.355,0.198,57.229c0.98,17.565,15.729,28.352,33.338,26.152
					c8.062-1.007,15.182-4.4,21.178-11.201C199.027,138.568,191.906,141.919,183.846,142.925z"/>
				<path fill="#222129" d="M99.247,80.871c-10.584-0.007-19.178,8.882-19.128,19.786c0.049,10.916,8.728,19.871,19.196,19.809
					c10.27-0.06,18.801-8.922,18.948-19.686C118.41,90.003,109.694,80.878,99.247,80.871z"/>
				<path fill="#222129" d="M0,1.438v203.824h299.741V1.438H0z M50.356,192.652c-5.396,0-10.445,0.509-15.506-0.127
					c-6.614-0.83-12.227-7.358-13.472-14.676c-0.507-2.975-0.741-6.024-0.76-9.043c-0.083-13.521-0.265-27.051,0.08-40.565
					c0.18-7.005-2.759-11.652-8.683-14.599c-2.549-1.266-3.612-2.842-3.172-5.584c0.074-0.461,0.078-0.934,0.061-1.408
					c-0.012-0.289-0.029-0.578-0.05-0.862c-0.316-4.386-0.097-7.841,4.938-10.375c5.833-2.936,6.818-9.276,6.812-15.48
					C20.59,63.756,20.5,47.579,20.653,31.402c0.035-3.75,0.527-7.574,1.415-11.219c1.57-6.444,5.806-10.633,12.167-11.714
					c0.205-0.035,0.406-0.076,0.615-0.104c1.892-0.256,3.786-0.339,5.7-0.342c2.552-0.005,5.138,0.131,7.796,0.186
					c0.665,0.014,1.334,0.022,2.008,0.022c0,3.393,0,6.713,0,9.952c-1.873,0-3.526-0.036-5.142-0.036
					c-0.969,0-1.923,0.013-2.903,0.056c-0.394,0.018-0.762,0.051-1.121,0.094c-4.149,0.491-5.872,2.704-5.881,7.289
					c-0.034,17.188-0.396,34.388,0.113,51.561c0.364,12.273-2.704,22.252-14.708,28.423c0.761,0.468,1.444,0.886,2.083,1.275
					c0.997,0.609,1.883,1.15,2.759,1.701c6.496,4.084,9.857,9.813,9.774,17.641c-0.135,12.892-0.034,25.783-0.034,38.676
					c0,0.658-0.074,1.318-0.105,1.98c-0.005,0.223-0.015,0.447-0.012,0.672c0.19,10.783,3.351,14.459,13.131,14.996
					c0.651,0.035,1.333,0.057,2.045,0.064C50.356,185.991,50.356,189.206,50.356,192.652z M146.274,136.395c0,1.478,0,2.926,0,4.723
					c-9.592,0-18.553,0-27.795,0c-0.122-2.393-0.379-5.07-0.38-7.738c-0.714,0.65-1.458,1.258-2.213,1.844
					c-5.326,4.158-11.672,6.678-18.259,7.619c-3.439,0.494-6.94,0.559-10.4,0.201c-0.842-0.088-1.681-0.193-2.516-0.33
					c-9.142-1.496-17.794-5.961-23.968-13.203c-14.59-17.113-13.874-43.646,1.743-59.792c14.54-15.031,40.627-16.084,55.614-1.234
					c0-3.005,0-5.522,0-8.585c3.597,0,6.781-0.047,9.896,0.011c5.91,0.109,11.845,0.278,17.753,0.423
					c0.188,6.015,0.498,12.029,0.52,18.046C146.336,97.715,146.274,117.055,146.274,136.395z M164.238,20.182
					c8.33,0.016,14.552,6.283,14.527,14.634c-0.022,8.161-6.562,14.592-14.75,14.511c-8.007-0.079-14.253-6.441-14.279-14.542
					C149.713,26.395,155.898,20.167,164.238,20.182z M232.6,198.066c-8.992,0-17.984,0-27.576,0c0-22.18,0-43.485,0-66.297
					c-5.996,6.799-13.116,10.193-21.178,11.199c-17.606,2.199-32.356-8.586-33.337-26.152c-1.054-18.875-0.199-38.045-0.199-57.229
					c8.603,0,17.711,0,27.281,0c0,1.798-0.002,3.214,0.002,4.702c0.034,14.156-0.026,28.405,0.146,42.56
					c0.006,0.467,0.021,0.922,0.049,1.36c0.415,6.636,3.23,10.394,8.143,11.515c6.594,1.508,12.81-0.959,15.678-7.527
					c1.959-4.486,3.041-9.646,3.242-14.56c0.229-5.615,0.272-11.235,0.26-16.859c-0.014-5.625-0.086-11.253-0.086-16.879
					c0-1.35,0-2.512,0-4.311c9.593,0,18.584,0,27.576,0C232.6,105.747,232.6,151.906,232.6,198.066z M219.732,49.327
					c-7.822-0.009-13.873-6.098-13.809-13.891c0.064-7.659,6.037-13.588,13.705-13.609c7.919-0.022,13.762,5.891,13.725,13.888
					C233.318,43.428,227.406,49.336,219.732,49.327z M293.864,104.18c-0.054,3.848-0.901,8.094-2.345,8.797
					c-7.024,3.422-10.025,8.69-9.731,16.715c0.489,13.379,0.198,26.789,0.101,40.184c-0.039,5.328-0.57,10.604-3.729,15.223
					c-3.271,4.783-7.738,7.684-13.612,7.885c-4.137,0.144-7.97,0.027-12.766,0.027c0-3.758,0-6.965,0-10.355
					c1.198-0.084,1.437-0.235,2.022-0.204c0.51,0.022,1,0.038,1.473,0.04c7.076,0.037,10.045-2.57,11.373-10.02
					c0.439-2.468,0.531-5.023,0.541-7.541c0.052-12.386,0.298-24.777-0.053-37.152c-0.266-9.41,3.584-16.006,11.715-20.365
					c0.568-0.305,1.121-0.645,1.674-0.98c0.093-0.057,0.185-0.113,0.275-0.168c0.102-0.063,0.16-0.188,0.459-0.551
					c-1.029-0.764-2.058-1.559-3.113-2.298c-7.379-5.172-11.031-12.175-10.976-21.264c0.115-18.072,0.007-36.146,0.007-54.219
					c-0.002-7.683-1.723-9.789-8.674-9.774c-0.076,0-0.158,0.002-0.236,0.003c-0.394,0.003-0.799,0.013-1.225,0.027
					c-1.607,0.06-2.865,0.236-5.263,0.383c0-3.587,0-6.907,0-11.038c5.995,0.289,11.104,0.048,16.358,0.975
					c7.432,1.311,11.504,6.608,12.881,13.796c0.564,2.959,0.845,6.017,0.859,9.032c0.083,15.798,0.129,31.597,0.003,47.394
					c-0.065,8.312,1.949,15.286,10.304,18.915c0.113,0.05,0.232,0.104,0.332,0.179C293.489,98.558,293.907,101.254,293.864,104.18z"
					/>
				<path display="none" fill="#FFFFFF" d="M205.023,63.898c0,5.625,0.07,11.253,0.084,16.879c0.015,5.626-0.028,11.25-0.26,16.865
					c-0.199,4.914-1.271,10.079-3.229,14.565c-2.868,6.568-9.092,9.047-15.684,7.539c-4.924-1.125-7.744-4.877-8.15-11.537
					c-0.026-0.439-0.043-0.893-0.049-1.361c-0.172-14.153-0.111-28.402-0.146-42.559c-0.004-1.487-0.002-2.904-0.002-4.702
					c-9.567,0-18.678,0-27.281,0c0,19.184-0.816,38.355,0.238,57.229c0.979,17.565,15.69,28.305,33.297,26.106
					c8.062-1.006,15.183-4.354,21.179-11.155c0,22.813,0,44.119,0,66.299c9.592,0,18.584,0,27.576,0c0-46.158,0-92.318,0-138.479
					c-8.992,0-17.984,0-27.576,0C205.023,61.386,205.023,62.548,205.023,63.898z"/>
				<path display="none" fill="#FFFFFF" d="M145.747,60.33c-5.909-0.144-11.844-0.313-17.753-0.422
					c-3.115-0.058-6.299-0.01-9.896-0.01c0,3.063,0,5.58,0,8.585c-14.987-14.85-41.074-13.797-55.614,1.234
					c-15.616,16.146-16.333,42.68-1.742,59.792c6.174,7.242,14.826,11.707,23.968,13.203c0.834,0.138,1.674,0.242,2.515,0.33
					c3.457,0.354,6.959,0.291,10.4-0.201c6.587-0.94,12.933-3.459,18.26-7.618c0.756-0.593,1.5-1.203,2.213-1.861
					c0,0.002,0,0.004,0,0.006c0,0.004,0,0.008,0,0.012c0,2.668,0.258,5.346,0.38,7.738c9.242,0,18.203,0,27.795,0
					c0-1.797,0-3.245,0-4.723c0-19.34,0.063-38.68-0.007-58.018C146.245,72.361,145.935,66.346,145.747,60.33z M99.314,120.469
					c-10.468,0.059-19.147-8.896-19.196-19.812c-0.05-10.904,8.544-19.792,19.128-19.785c10.447,0.006,19.164,9.131,19.017,19.909
					C118.115,111.544,109.584,120.406,99.314,120.469z"/>
				<path display="none" fill="#FFFFFF" d="M292.52,97.824c-0.099-0.075-0.218-0.129-0.332-0.18
					c-8.354-3.63-10.369-10.604-10.303-18.916c0.126-15.797,0.08-31.597-0.003-47.394c-0.015-3.015-0.295-6.072-0.86-9.032
					c-1.377-7.188-5.448-12.486-12.881-13.796c-5.255-0.927-10.363-0.687-16.357-0.975c0,4.131,0,7.451,0,11.038
					c2.398-0.147,3.656-0.324,5.264-0.383c0.426-0.015,0.83-0.024,1.225-0.027c0.078,0,0.16-0.002,0.235-0.003
					c6.951-0.015,8.673,2.09,8.673,9.774c0.002,18.073,0.11,36.146-0.005,54.219c-0.058,9.09,3.597,16.093,10.974,21.265
					c1.059,0.74,2.086,1.535,3.115,2.296c-0.3,0.362-0.356,0.487-0.459,0.552c-0.093,0.057-0.185,0.112-0.275,0.168
					c-0.551,0.338-1.103,0.676-1.67,0.979c-8.133,4.358-11.975,10.957-11.709,20.364c0.351,12.377,0.115,24.771,0.063,37.154
					c-0.011,2.518-0.079,5.074-0.521,7.541c-1.327,7.448-4.336,10.059-11.416,10.021c-0.473-0.002-0.963-0.018-1.471-0.043
					c-0.589-0.029-0.824,0.121-2.023,0.207c0,3.391,0,6.598,0,10.354c4.796,0,8.628,0.115,12.765-0.025
					c5.874-0.2,10.298-3.104,13.569-7.887c3.158-4.617,3.711-9.895,3.751-15.221c0.097-13.396,0.397-26.807-0.091-40.186
					c-0.293-8.021,2.713-13.291,9.738-16.713c1.441-0.703,2.293-4.949,2.35-8.799C293.907,101.254,293.489,98.558,292.52,97.824z"/>
				<path display="none" fill="#FFFFFF" d="M35.181,167.518c-0.004-0.226,0.006-0.449,0.012-0.674c0.014-0.66,0.045-1.32,0.045-1.98
					c0-12.891-0.068-25.783,0.066-38.674c0.082-7.828-3.26-13.56-9.756-17.642c-0.876-0.551-1.758-1.092-2.75-1.7
					c-0.638-0.392-1.322-0.81-2.083-1.275C32.718,99.4,35.786,89.421,35.423,77.147c-0.509-17.173-0.146-34.372-0.113-51.56
					c0.009-4.586,1.732-6.798,5.882-7.29c0.357-0.043,0.726-0.077,1.12-0.094c0.98-0.043,1.935-0.056,2.904-0.056
					c1.615-0.001,3.269,0.036,5.142,0.036c0-3.239,0-6.559,0-9.953c-0.675,0-1.343-0.009-2.008-0.022
					c-2.659-0.055-5.245-0.19-7.796-0.186c-1.914,0.003-3.809,0.087-5.7,0.342c-0.21,0.028-0.411,0.07-0.616,0.104
					c-6.361,1.081-10.597,5.271-12.166,11.714c-0.888,3.646-1.38,7.469-1.416,11.219c-0.153,16.176-0.063,32.353-0.049,48.53
					c0.005,6.204-0.978,12.545-6.812,15.48c-5.036,2.533-5.256,5.989-4.939,10.374c0.021,0.287,0.039,0.576,0.05,0.865
					c0.02,0.475,0.016,0.947-0.059,1.406c-0.44,2.741,0.628,4.316,3.177,5.586c5.924,2.942,8.871,7.594,8.691,14.598
					c-0.346,13.516-0.147,27.045-0.065,40.566c0.018,3.018,0.284,6.067,0.79,9.043c1.245,7.315,6.797,13.846,13.411,14.676
					c5.06,0.633,10.109,0.127,15.505,0.127c0-3.447,0-6.662,0-10.076c-0.712-0.01-1.393-0.031-2.045-0.066
					C38.532,181.977,35.371,178.298,35.181,167.518z"/>
				<path display="none" fill="#FFFFFF" d="M164.016,49.326c8.189,0.082,14.729-6.35,14.752-14.511
					c0.021-8.351-6.199-14.618-14.527-14.634c-8.342-0.016-14.526,6.214-14.501,14.603
					C149.763,42.885,156.009,49.247,164.016,49.326z"/>
				<path display="none" fill="#FFFFFF" d="M219.63,21.827c-7.668,0.021-13.64,5.95-13.705,13.609
					c-0.065,7.793,5.985,13.882,13.81,13.891c7.673,0.009,13.584-5.899,13.621-13.612C233.393,27.718,227.549,21.805,219.63,21.827z
					"/>
			</g>
		</g>
	</g>
	<rect y="-1" fill="#222129" width="300" height="4"/>
	<rect y="203" fill="#222129" width="300" height="4"/>
	
		<rect x="195.262" y="100.698" transform="matrix(-0.0017 -1 1 -0.0017 197.1553 401.5888)" fill="#222129" width="207.539" height="3.372"/>
</g>
</svg>
