<?xml version="1.0" encoding="utf-8"?>
<!-- Generator: Adobe Illustrator 16.0.0, SVG Export Plug-In . SVG Version: 6.00 Build 0)  -->
<!DOCTYPE svg PUBLIC "-//W3C//DTD SVG 1.1//EN" "http://www.w3.org/Graphics/SVG/1.1/DTD/svg11.dtd">
<svg version="1.1" xmlns="http://www.w3.org/2000/svg" xmlns:xlink="http://www.w3.org/1999/xlink" x="0px" y="0px" width="80px"
	 height="54px" viewBox="0 0 80 54" enable-background="new 0 0 80 54" xml:space="preserve">
<g id="Calque_1">
</g>
<g id="Calque_2" display="none">
	<rect x="-0.5" y="0.5" display="inline" fill="#0F0687" stroke="#000000" stroke-miterlimit="10" width="80" height="54"/>
</g>
<g id="Calque_3">
	<path fill="#FFFFFF" d="M55,16.167c0,1.579,0.054,3.158,0.058,4.736s0.01,3.156-0.055,4.732c-0.057,1.379-0.349,2.828-0.897,4.087
		c-0.805,1.843-2.547,2.538-4.396,2.115c-1.382-0.315-2.172-1.368-2.285-3.237c-0.008-0.123,0.303-0.25,0.301-0.381
		C47.677,24.247,48,20.249,48,16.276C48,15.859,48,15,48,15c-3,0-5.87,0-8.284,0c0,5-0.229,10.741,0.067,16.036
		c0.275,4.93,4.368,7.932,9.309,7.315C51.354,38.069,54,37.118,55,35.21C55,41.611,55,48,55,54c3,0,6,0,8,0c0-13,0-26,0-39
		c-2,0-5,0-8,0C55,15,55,15.788,55,16.167z"/>
	<path fill="#FFFFFF" d="M38.436,15.166c-1.658-0.041-3.163-0.088-4.821-0.119C32.741,15.031,32,15.044,31,15.044
		c0,0.859,0,1.566,0,2.409c-4-4.167-11.686-3.872-15.766,0.346c-4.382,4.53-4.663,11.975-0.569,16.777
		c1.732,2.032,4.12,3.285,6.685,3.705c0.234,0.038,0.45,0.067,0.687,0.092c0.97,0.101,1.942,0.082,2.908-0.056
		c1.849-0.265,3.624-0.8,5.118-1.968c0.212-0.166,0.375-0.35,0.575-0.35H31c0,0,0-0.339,0-0.338C31,36.41,30.75,37,30.785,38
		C33.378,38,36,38,39,38c0-1,0-1.077,0-1.492c0-5.427-0.19-10.853-0.21-16.279C38.784,18.541,38.489,16.854,38.436,15.166z
		 M25.408,32.039c-2.937,0.017-5.373-2.496-5.386-5.559c-0.014-3.059,2.397-5.553,5.367-5.551c2.932,0.002,5.377,2.562,5.335,5.586
		C30.683,29.535,28.289,32.022,25.408,32.039z"/>
	<path fill="#FFFFFF" d="M79.618,25.686c-0.027-0.021-0.061-0.036-0.094-0.05c-2.343-1.018-2.909-2.975-2.89-5.307
		c0.035-4.433,0.022-8.866-0.001-13.298c-0.005-0.846-0.083-1.704-0.241-2.534c-0.387-2.017-1.123-3.503-3.209-3.871
		C71.709,0.364,70,0.432,69,0.351c0,1.159,0,2.091,0,3.097c0-0.042,0.619-0.257,1.07-0.274C70.189,3.17,69.897,3,70.008,3
		c0.022,0,0.045,0,0.067,0c1.95,0,2.433,0.753,2.433,2.908c0.001,5.071,0.031,10.225-0.001,15.296
		c-0.017,2.55,1.009,4.557,3.079,6.008c0.297,0.208,0.585,0.452,0.874,0.666c-0.084,0.102-0.101,0.147-0.129,0.165
		c-0.026,0.016-0.052,0.036-0.077,0.052c-0.155,0.095-0.31,0.192-0.469,0.278c-2.282,1.223-3.359,3.075-3.285,5.715
		c0.098,3.473,0.032,6.95,0.018,10.426c-0.003,0.706-0.022,1.424-0.146,2.116c-0.373,2.091-1.217,2.822-3.203,2.812
		c-0.133,0,0.136-0.005-0.007-0.012C68.996,49.422,69,49.464,69,49.488c0,0.951,0,1.851,0,2.905c1,0,2.016,0.032,3.176-0.008
		c1.648-0.057,2.687-0.871,3.604-2.213c0.886-1.295,0.938-2.776,0.95-4.271c0.027-3.759,0.062-7.521-0.076-11.275
		c-0.082-2.251,0.736-3.729,2.707-4.689c0.405-0.197,0.632-1.389,0.647-2.469C80.021,26.648,79.891,25.892,79.618,25.686z"/>
	<path fill="#FFFFFF" d="M7.413,45.24c-0.001-0.063,0.002-0.126,0.003-0.188c0.004-0.186,0.013-0.371,0.013-0.556
		c0-3.617-0.02-7.234,0.019-10.852c0.023-2.196-0.915-3.804-2.737-4.949c-0.246-0.154-0.493-0.307-0.772-0.478
		c-0.179-0.11-0.371-0.227-0.584-0.358c3.368-1.732,4.229-4.532,4.126-7.976C7.338,15.065,7.439,10.24,7.449,5.417
		C7.452,4.13,7.935,3.51,9.099,3.372c0.1-0.012,0.204-0.021,0.314-0.026c0.275-0.012,0.708-0.016,0.979-0.016
		c0.453,0,1.607,0.01,1.607,0.01c0-0.909,0-1.84,0-2.792c0,0-0.542-0.002-0.728-0.006c-0.746-0.015-1.554-0.053-2.27-0.052
		C8.465,0.49,7.892,0.513,7.361,0.585c-0.059,0.008-0.136,0.02-0.193,0.029C5.384,0.917,4.185,2.093,3.744,3.901
		C3.495,4.924,3.352,5.997,3.342,7.049c-0.043,4.539-0.021,9.078-0.017,13.617c0.001,1.74-0.276,3.52-1.913,4.343
		C0,25.72-0.062,26.689,0.027,27.92c0.006,0.08,0.01,0.162,0.014,0.242c0.005,0.134,0.004,0.267-0.017,0.396
		C-0.1,29.327,0.2,29.77,0.915,30.125c1.662,0.825,2.489,2.13,2.438,4.096c-0.097,3.792-0.042,7.588-0.018,11.383
		c0.005,0.846,0.08,1.702,0.222,2.537c0.35,2.053,2.072,3.885,3.928,4.117C8.905,52.436,11,52.293,12,52.293
		c0-0.967,0-1.868,0-2.826c0-0.003-0.556-0.009-0.739-0.019C8.518,49.298,7.466,48.266,7.413,45.24z"/>
	<path fill="#FFFFFF" d="M43.562,12.078c2.298,0.022,4.133-1.782,4.14-4.072c0.006-2.343-1.739-4.102-4.076-4.106
		c-2.341-0.004-4.076,1.744-4.069,4.097C39.563,10.271,41.315,12.056,43.562,12.078z"/>
	<path fill="#FFFFFF" d="M59.166,4.362c-2.151,0.006-3.827,1.669-3.845,3.818c-0.019,2.187,1.679,3.895,3.874,3.897
		c2.153,0.002,3.812-1.655,3.822-3.819C63.027,6.015,61.389,4.356,59.166,4.362z"/>
</g>
</svg>
