<?xml version="1.0" encoding="utf-8"?>
<!-- Generator: Adobe Illustrator 16.0.0, SVG Export Plug-In . SVG Version: 6.00 Build 0)  -->
<!DOCTYPE svg PUBLIC "-//W3C//DTD SVG 1.1//EN" "http://www.w3.org/Graphics/SVG/1.1/DTD/svg11.dtd">
<svg version="1.1" xmlns="http://www.w3.org/2000/svg" xmlns:xlink="http://www.w3.org/1999/xlink" x="0px" y="0px" width="500px"
	 height="340px" viewBox="0 0 500 340" enable-background="new 0 0 500 340" xml:space="preserve">
<g id="Calque_2" display="none">
	<rect display="inline" fill="#FF0080" width="500" height="340"/>
</g>
<g id="Calque_1">
	<g>
		<path display="none" fill-rule="evenodd" clip-rule="evenodd" d="M0.432,336.551c0-113.079,0-226.16,0-339.24
			c166.667,0,333.333,0,500,0c0,112.92,0,225.84,0,339.137c-3.703,0-6.419,0-9.136,0c-128.832,0-257.662-0.006-386.494,0.006
			C70.012,336.456,35.222,336.517,0.432,336.551z M342.266,217.405c0,38.054,0,74.02,0,110.159c15.595,0,30.674,0,46.117,0
			c0-76.963,0-153.573,0-230.484c-15.533,0-30.615,0-46.479,0c0,2.606,0,4.858,0,7.11c0,18.767,0.523,37.554-0.242,56.289
			c-0.335,8.196-2.096,16.813-5.362,24.296c-4.784,10.958-15.152,15.092-26.15,12.577c-8.755-1.999-13.521-8.982-13.671-21.515
			c-0.285-23.611-0.182-47.228-0.238-70.841c-0.006-2.48,0-4.962,0-7.691c-15.961,0-31.156,0-45.508,0
			c0,32.172-1.36,63.829,0.397,95.312c1.636,29.305,26.306,47.141,55.677,43.475C320.253,234.414,331.641,228.749,342.266,217.405z
			 M244.062,232.979c0-2.923,0-5.391,0-7.857c0-32.261,0.073-64.521-0.043-96.779c-0.036-10.035-0.583-20.069-0.898-30.103
			c-9.856-0.241-19.711-0.523-29.568-0.706c-5.196-0.096-10.396-0.017-16.462-0.017c0,5.109,0,9.307,0,14.321
			c-24.897-24.771-68.561-23.015-92.814,2.059c-26.05,26.931-27.268,71.192-2.93,99.739c23.537,27.609,68.705,31.014,95.689,6.415
			c0.207,4.459,0.396,8.536,0.599,12.928C213.052,232.979,227.948,232.979,244.062,232.979z M420.38,28.575
			c3.233-0.246,5.907-0.541,8.589-0.639c13.638-0.501,16.809,2.583,16.81,16.253c0.002,30.147,0.136,60.296-0.056,90.443
			c-0.096,15.162,5.975,26.844,18.28,35.472c1.764,1.235,3.466,2.56,5.184,3.833c-0.498,0.603-0.601,0.814-0.771,0.918
			c-1.073,0.654-2.142,1.323-3.249,1.916c-13.564,7.271-19.975,18.275-19.531,33.971c0.583,20.645,0.189,41.317,0.105,61.977
			c-0.017,4.198-0.133,8.464-0.867,12.579c-2.363,13.255-7.769,17.323-21.354,16.646c-0.98-0.05-1.977,0.203-3.23,0.345
			c0,5.655,0,11.004,0,17.272c7.331,0,14.247,0.191,21.148-0.045c9.799-0.336,17.104-5.176,22.562-13.154
			c5.268-7.701,6.154-16.505,6.221-25.391c0.162-22.346,0.647-44.715-0.169-67.032c-0.489-13.382,4.517-22.172,16.233-27.88
			c4.237-2.063,5.414-22.44,1.669-25.277c-0.166-0.125-0.363-0.215-0.556-0.299c-13.934-6.055-17.296-17.688-17.185-31.553
			c0.21-26.352,0.134-52.707-0.004-79.059c-0.025-5.029-0.492-10.129-1.436-15.066c-2.296-11.991-8.899-20.828-21.298-23.014
			c-8.766-1.546-17.875-1.145-27.097-1.627C420.38,17.055,420.38,22.592,420.38,28.575z M84.407,302.16
			c-19.595-0.238-25.18-5.938-25.519-25.123c-0.026-1.478-0.006-2.953-0.006-4.428c0-21.503-0.166-43.009,0.06-64.511
			c0.137-13.059-5.464-22.616-16.3-29.428c-2.401-1.509-4.831-2.973-8.074-4.964c20.022-10.297,25.134-26.943,24.527-47.416
			c-0.849-28.646-0.248-57.336-0.191-86.008c0.017-8.309,3.555-11.955,11.841-12.317c4.358-0.19,8.732-0.034,13.583-0.034
			c0-5.402,0-10.941,0-16.602c-8.922,0-17.613-0.913-26.028,0.225C47.112,13.068,39.6,20.175,36.897,31.27
			c-1.481,6.081-2.343,12.46-2.402,18.715c-0.255,26.983-0.126,53.968-0.102,80.954c0.009,10.348-1.642,20.926-11.374,25.822
			c-8.4,4.226-8.771,9.989-8.243,17.306c0.091,1.259,0.181,2.556-0.018,3.789c-0.734,4.574,1.046,7.204,5.298,9.317
			c9.883,4.909,14.796,12.666,14.497,24.351c-0.576,22.545-0.246,45.113-0.108,67.669c0.03,5.033,0.473,10.122,1.318,15.083
			c2.077,12.205,11.542,23.097,22.575,24.48c8.442,1.059,17.124,0.211,26.068,0.211C84.407,313.217,84.407,307.856,84.407,302.16z
			 M273.969,31.267c-13.913-0.026-24.232,10.365-24.19,24.358c0.041,13.513,10.46,24.125,23.817,24.258
			c13.66,0.136,24.566-10.593,24.605-24.206C298.239,41.746,287.862,31.292,273.969,31.267z M389.26,57.178
			c0.063-13.34-9.685-23.204-22.894-23.167c-12.792,0.036-22.753,9.926-22.861,22.701c-0.11,13.001,9.983,23.157,23.033,23.172
			C379.338,79.899,389.2,70.044,389.26,57.178z"/>
		<path display="none" fill-rule="evenodd" clip-rule="evenodd" d="M165.554,132.503c17.428,0.011,31.968,15.233,31.722,33.21
			c-0.246,17.955-14.477,32.74-31.608,32.84c-17.461,0.101-31.939-14.84-32.021-33.046
			C133.563,147.32,147.898,132.492,165.554,132.503z"/>
		<g>
			<path display="none" fill="none" d="M67.645,10.984c-3.193,0.006-6.353,0.145-9.509,0.571c-0.35,0.047-0.684,0.116-1.026,0.174
				c0.342-0.058,0.677-0.127,1.027-0.174C61.292,11.128,64.453,10.99,67.645,10.984z"/>
			<path display="none" fill="none" d="M35.764,294.275c-0.845-4.961-1.288-10.05-1.318-15.083
				c-0.138-22.556-0.468-45.124,0.108-67.669c0.299-11.685-4.615-19.441-14.498-24.351c-4.252-2.113-6.034-4.743-5.299-9.317
				c0.124-0.767,0.129-1.557,0.098-2.348c0.03,0.791,0.022,1.581-0.102,2.348c-0.734,4.574,1.04,7.204,5.292,9.317
				c9.883,4.909,14.783,12.666,14.484,24.351c-0.576,22.545-0.271,45.113-0.133,67.669c0.03,5.033,0.422,10.122,1.267,15.083
				c2.077,12.205,11.44,23.097,22.473,24.48C47.103,317.372,37.841,306.48,35.764,294.275z"/>
			<path display="none" fill="none" d="M145.501,236.21c5.772,0.599,11.612,0.49,17.349-0.334
				C157.11,236.696,151.267,236.806,145.501,236.21z"/>
			<path display="none" fill="none" d="M197,220.062c-1.189,1.097-2.43,2.117-3.691,3.104c1.26-0.977,2.691-1.988,3.691-3.074
				c0-0.007,0-0.014,0-0.021C197,220.067,197,220.064,197,220.062z"/>
			<path display="none" fill="none" d="M310.161,197.353c10.998,2.515,21.378-1.619,26.163-12.577
				c3.266-7.483,5.051-16.1,5.386-24.296c0.383-9.367,0.455-18.748,0.433-28.133c0.022,9.381-0.05,18.757-0.433,28.123
				c-0.335,8.196-2.144,16.803-5.41,24.286c-4.784,10.958-15.152,15.073-26.15,12.559c-8.192-1.87-12.89-8.141-13.583-19.206
				C297.243,189.218,301.95,195.478,310.161,197.353z"/>
			<path display="none" fill="none" d="M58.892,208.099c-0.226,21.502-0.111,43.008-0.111,64.511c0,1.101-0.053,2.202-0.076,3.305
				c0.052-1.103,0.176-2.204,0.176-3.305c0-21.503-0.168-43.009,0.057-64.511c0.137-13.059-5.469-22.616-16.305-29.428
				c-1.461-0.918-2.94-1.821-4.603-2.836c1.656,1.015,3.126,1.918,4.588,2.836C53.453,185.482,59.029,195.04,58.892,208.099z"/>
			<path display="none" fill="none" d="M68.712,28.123c0.597-0.071,1.212-0.128,1.869-0.157c1.634-0.071,3.227-0.094,4.842-0.094
				c-1.616,0-3.209,0.023-4.844,0.094C69.923,27.995,69.308,28.052,68.712,28.123z"/>
			<path display="none" fill="none" d="M444.874,285.298c0.734-4.115,0.85-8.381,0.866-12.579
				c0.084-20.659,0.477-41.332-0.105-61.977c-0.443-15.695,5.965-26.699,19.529-33.971c0.949-0.508,1.867-1.073,2.786-1.636
				c-0.921,0.563-1.843,1.128-2.792,1.636c-13.564,7.271-19.984,18.275-19.541,33.971c0.583,20.645,0.172,41.317,0.088,61.977
				c-0.017,4.198-0.169,8.464-0.903,12.579c-2.216,12.427-7.168,16.778-18.973,16.716
				C437.642,302.077,442.658,297.725,444.874,285.298z"/>
			<path display="none" fill="none" d="M486.276,186.059c-11.717,5.708-16.732,14.498-16.243,27.88
				c0.816,22.317,0.313,44.687,0.151,67.032c-0.066,8.886-0.989,17.689-6.257,25.391c-5.458,7.979-12.836,12.818-22.635,13.154
				c9.799-0.336,17.249-5.176,22.707-13.154c5.268-7.701,6.154-16.505,6.221-25.391c0.162-22.346,0.647-44.715-0.169-67.032
				c-0.489-13.382,4.517-22.172,16.233-27.88c2.407-1.173,3.823-8.256,3.912-14.676
				C490.104,177.803,488.684,184.886,486.276,186.059z"/>
			<path display="none" fill="none" d="M306.674,236.016c-29.371,3.666-53.908-14.246-55.544-43.551
				C249.372,160.981,250.732,129,250.732,97c0,32-1.427,63.981,0.331,95.465c1.636,29.305,26.239,47.293,55.61,43.627
				C320.12,234.414,332,228.749,342,217.405C332,228.749,320.12,234.338,306.674,236.016z"/>
			<path fill="#222129" d="M165.554,132.503c-17.655-0.012-31.991,14.816-31.908,33.004c0.082,18.207,14.56,33.147,32.021,33.046
				c17.132-0.1,31.362-14.885,31.608-32.84C197.521,147.737,182.982,132.515,165.554,132.503z"/>
			<path fill="#222129" d="M0,0v340h500V0H0z M84,318.967c-9,0-17.423,0.848-25.865-0.211c-11.033-1.384-20.396-12.275-22.473-24.48
				c-0.845-4.961-1.236-10.05-1.267-15.083c-0.138-22.556-0.442-45.124,0.133-67.669c0.299-11.685-4.602-19.441-14.484-24.351
				c-4.252-2.113-6.026-4.743-5.292-9.317c0.124-0.767,0.131-1.557,0.102-2.348c-0.019-0.482-0.048-0.965-0.083-1.441
				c-0.528-7.316-0.162-13.08,8.238-17.306c9.731-4.896,11.373-15.474,11.363-25.822c-0.024-26.985-0.173-53.971,0.082-80.954
				c0.059-6.255,0.88-12.634,2.361-18.715c2.618-10.749,9.684-17.737,20.295-19.541c0.342-0.058,0.677-0.127,1.026-0.174
				c3.156-0.427,6.316-0.565,9.509-0.571c4.256-0.008,8.57,0.218,13.005,0.309c1.109,0.023,2.225,0.037,3.35,0.037
				c0,5.661,0,11.2,0,16.602c-3.125,0-5.883-0.061-8.577-0.06c-1.616,0-3.208,0.023-4.842,0.094
				c-0.657,0.029-1.272,0.086-1.869,0.157c-6.921,0.82-9.795,4.51-9.811,12.16c-0.057,28.671-0.661,57.362,0.188,86.008
				c0.607,20.473-4.511,37.119-24.534,47.416c1.269,0.779,2.409,1.476,3.474,2.128c1.663,1.015,3.142,1.918,4.603,2.836
				c10.836,6.812,16.442,16.369,16.305,29.428c-0.226,21.502-0.057,43.008-0.057,64.511c0,1.101-0.124,2.202-0.176,3.305
				c-0.008,0.374-0.026,0.748-0.02,1.123c0.318,17.986,5.59,24.12,21.904,25.013c1.087,0.06,2.224,0.096,3.412,0.11
				C84,307.856,84,313.217,84,318.967z M244,225.121c0,2.467,0,4.879,0,7.879c-16,0-30.948,0-46.365,0
				c-0.203-3.991-0.633-8.46-0.634-12.909c-1.192,1.086-2.432,2.098-3.691,3.074c-8.885,6.939-19.471,11.141-30.459,12.711
				c-5.737,0.824-11.577,0.933-17.349,0.334c-1.404-0.146-2.804-0.32-4.196-0.548c-15.25-2.496-29.682-9.944-39.981-22.026
				c-24.338-28.547-23.143-72.808,2.907-99.739c24.254-25.074,67.77-26.83,92.77-2.059c0-5.014,0-9.212,0-14.321
				c6,0,11.311-0.079,16.507,0.017c9.857,0.182,19.758,0.465,29.614,0.706c0.314,10.034,0.831,20.067,0.867,30.103
				C244.104,160.6,244,192.86,244,225.121z M273.969,31.267c13.894,0.025,24.271,10.479,24.232,24.41
				c-0.039,13.613-10.945,24.342-24.605,24.206c-13.356-0.132-23.776-10.745-23.817-24.258
				C249.737,41.631,260.056,31.241,273.969,31.267z M388,328c-15,0-30,0-46,0c0-37,0-72.541,0-110.595
				c-10,11.344-21.88,17.009-35.326,18.687c-29.371,3.666-53.975-14.322-55.61-43.627C249.306,160.981,250.732,129,250.732,97
				c14.352,0,29.547,0,45.508,0c0,3-0.003,5.363,0.003,7.844c0.057,23.614-0.044,47.383,0.241,70.994
				c0.01,0.778,0.037,1.535,0.082,2.271c0.693,11.065,5.391,17.336,13.583,19.206c10.998,2.515,21.366-1.601,26.15-12.559
				c3.267-7.483,5.075-16.09,5.41-24.286c0.383-9.366,0.455-18.742,0.433-28.123c-0.023-9.384-0.143-18.772-0.143-28.156
				c0-2.252,0-4.191,0-7.191c16,0,31,0,46,0C388,174,388,251,388,328z M366.538,79.884c-13.05-0.015-23.144-10.171-23.033-23.172
				c0.108-12.775,10.069-22.666,22.861-22.701c13.209-0.037,22.956,9.827,22.894,23.167C389.2,70.044,379.338,79.899,366.538,79.884
				z M490.197,171.383c-0.089,6.42-1.505,13.503-3.912,14.676c-11.717,5.708-16.723,14.498-16.233,27.88
				c0.816,22.317,0.331,44.687,0.169,67.032c-0.066,8.886-0.953,17.689-6.221,25.391c-5.458,7.979-12.908,12.818-22.707,13.154
				c-6.9,0.236-13.293,0.045-21.293,0.045c0-6.269,0-11.617,0-17.272c2-0.142,2.395-0.395,3.375-0.345
				c0.849,0.042,1.666,0.066,2.454,0.07c11.805,0.063,16.757-4.289,18.973-16.716c0.734-4.115,0.887-8.381,0.903-12.579
				c0.084-20.659,0.495-41.332-0.088-61.977c-0.443-15.695,5.977-26.699,19.541-33.971c0.949-0.508,1.871-1.073,2.792-1.636
				c0.153-0.094,0.307-0.187,0.46-0.28c0.17-0.104,0.267-0.315,0.765-0.918c-1.718-1.273-3.432-2.598-5.195-3.833
				c-12.306-8.628-18.4-20.31-18.305-35.472c0.191-30.146,0.011-60.295,0.009-90.443c-0.001-12.816-2.872-16.328-14.467-16.304
				c-0.129,0-0.266,0.003-0.396,0.005c-0.655,0.005-1.331,0.02-2.041,0.045c-2.682,0.099-4.779,0.393-8.779,0.639
				c0-5.983,0-11.521,0-18.412c10,0.482,18.521,0.081,27.287,1.627c12.398,2.187,19.191,11.023,21.487,23.014
				c0.943,4.937,1.41,10.037,1.436,15.066c0.138,26.353,0.214,52.707,0.004,79.059c-0.111,13.865,3.251,25.498,17.185,31.553
				c0.192,0.083,0.39,0.174,0.556,0.299C489.571,162.006,490.268,166.503,490.197,171.383z"/>
			<path display="none" fill="#FFFFFF" d="M342,104.191c0,9.383,0.119,18.771,0.143,28.156c0.022,9.385-0.05,18.766-0.433,28.133
				c-0.335,8.196-2.12,16.813-5.386,24.296c-4.785,10.958-15.165,15.092-26.163,12.577c-8.211-1.875-12.918-8.135-13.595-19.244
				c-0.045-0.735-0.072-1.492-0.082-2.271c-0.285-23.611-0.185-47.38-0.241-70.994c-0.006-2.48-0.003-4.844-0.003-7.844
				c-15.961,0-31.156,0-45.508,0c0,32-1.36,63.981,0.397,95.465c1.636,29.305,26.173,47.217,55.544,43.551
				c13.446-1.678,25.326-7.267,35.326-18.61c0,38.054,0,73.595,0,110.595c16,0,31,0,46,0c0-77,0-154,0-231c-15,0-30,0-46,0
				C342,100,342,101.939,342,104.191z"/>
			<path display="none" fill="#FFFFFF" d="M243.121,98.239c-9.856-0.241-19.756-0.523-29.614-0.706
				C208.311,97.438,203,97.517,197,97.517c0,5.109,0,9.307,0,14.321c-25-24.771-68.516-23.015-92.77,2.059
				c-26.05,26.931-27.245,71.192-2.907,99.739c10.299,12.082,24.731,19.53,39.981,22.026c1.392,0.228,2.792,0.402,4.196,0.548
				c5.766,0.596,11.609,0.486,17.349-0.334c10.988-1.57,21.574-5.771,30.459-12.711c1.262-0.986,2.502-2.007,3.691-3.104
				c0,0.003,0,0.006,0,0.009c0,0.007,0,0.014,0,0.021c0.001,4.449,0.431,8.918,0.634,12.909c15.417,0,30.365,0,46.365,0
				c0-3,0-5.412,0-7.879c0-32.261,0.104-64.521-0.012-96.779C243.952,118.307,243.435,108.273,243.121,98.239z M165.667,198.554
				c-17.461,0.101-31.939-14.84-32.021-33.046c-0.083-18.188,14.253-33.016,31.908-33.004c17.428,0.011,31.968,15.233,31.722,33.21
				C197.029,183.669,182.799,198.454,165.667,198.554z"/>
			<path display="none" fill="#FFFFFF" d="M487.954,160.782c-0.166-0.125-0.363-0.215-0.556-0.299
				c-13.934-6.055-17.296-17.688-17.185-31.553c0.21-26.352,0.134-52.707-0.004-79.059c-0.025-5.029-0.492-10.129-1.436-15.066
				c-2.296-11.991-9.089-20.828-21.487-23.014C438.521,10.244,430,10.646,420,10.164c0,6.891,0,12.429,0,18.412
				c4-0.246,6.098-0.541,8.779-0.639c0.71-0.026,1.386-0.04,2.041-0.045c0.131-0.001,0.268-0.004,0.396-0.005
				c11.595-0.024,14.466,3.487,14.467,16.304c0.002,30.147,0.183,60.296-0.009,90.443c-0.096,15.162,5.999,26.844,18.305,35.472
				c1.764,1.235,3.478,2.56,5.195,3.833c-0.498,0.603-0.595,0.814-0.765,0.918c-0.153,0.094-0.307,0.187-0.46,0.28
				c-0.919,0.563-1.837,1.128-2.786,1.636c-13.564,7.271-19.973,18.275-19.529,33.971c0.582,20.645,0.189,41.317,0.105,61.977
				c-0.017,4.198-0.132,8.464-0.866,12.579c-2.216,12.427-7.232,16.779-19.045,16.716c-0.788-0.004-1.605-0.028-2.454-0.07
				c-0.98-0.05-1.375,0.203-3.375,0.345c0,5.655,0,11.004,0,17.272c8,0,14.393,0.191,21.293-0.045
				c9.799-0.336,17.177-5.176,22.635-13.154c5.268-7.701,6.19-16.505,6.257-25.391c0.162-22.346,0.665-44.715-0.151-67.032
				c-0.489-13.382,4.526-22.172,16.243-27.88c2.407-1.173,3.828-8.256,3.921-14.676
				C490.268,166.503,489.571,162.006,487.954,160.782z"/>
			<path display="none" fill="#FFFFFF" d="M58.685,277.037c-0.007-0.375,0.011-0.749,0.02-1.123
				c0.023-1.103,0.076-2.204,0.076-3.305c0-21.503-0.114-43.009,0.111-64.511c0.137-13.059-5.438-22.616-16.274-29.428
				c-1.461-0.918-2.932-1.821-4.588-2.836c-1.064-0.652-2.205-1.349-3.474-2.128c20.022-10.297,25.141-26.943,24.534-47.416
				c-0.849-28.646-0.245-57.336-0.188-86.008c0.015-7.65,2.89-11.34,9.811-12.16c0.596-0.071,1.211-0.128,1.868-0.157
				c1.635-0.071,3.228-0.094,4.844-0.094c2.693-0.001,5.452,0.06,8.577,0.06c0-5.402,0-10.941,0-16.602
				c-1.125,0-2.241-0.014-3.35-0.037c-4.435-0.091-8.749-0.317-13.005-0.309c-3.192,0.006-6.353,0.145-9.508,0.571
				c-0.35,0.047-0.685,0.116-1.027,0.174c-10.611,1.803-17.677,8.792-20.295,19.541c-1.481,6.081-2.302,12.46-2.361,18.715
				c-0.255,26.983-0.105,53.968-0.082,80.954c0.009,10.348-1.632,20.926-11.363,25.822c-8.4,4.226-8.767,9.989-8.238,17.306
				c0.035,0.477,0.064,0.959,0.083,1.441c0.032,0.791,0.026,1.581-0.098,2.348c-0.734,4.574,1.047,7.204,5.299,9.317
				c9.883,4.909,14.797,12.666,14.498,24.351c-0.576,22.545-0.246,45.113-0.108,67.669c0.03,5.033,0.473,10.122,1.318,15.083
				c2.077,12.205,11.338,23.097,22.371,24.48C66.577,319.814,75,318.967,84,318.967c0-5.75,0-11.11,0-16.807
				c-1.188-0.015-2.324-0.051-3.412-0.11C64.275,301.157,59.003,295.023,58.685,277.037z"/>
			<path display="none" fill="#FFFFFF" d="M273.596,79.882c13.66,0.136,24.566-10.593,24.605-24.206
				c0.038-13.93-10.339-24.384-24.232-24.41c-13.913-0.026-24.232,10.365-24.19,24.358C249.82,69.138,260.239,79.75,273.596,79.882z
				"/>
			<path display="none" fill="#FFFFFF" d="M366.366,34.011c-12.792,0.036-22.753,9.926-22.861,22.701
				c-0.11,13.001,9.983,23.157,23.033,23.172c12.8,0.015,22.662-9.84,22.722-22.706C389.322,43.838,379.575,33.974,366.366,34.011z"
				/>
		</g>
	</g>
</g>
</svg>
